<svg xmlns="http://www.w3.org/2000/svg" width="200" height="176.863">
  <g font-family="French Script MT" font-size="40" font-weight="400" letter-spacing="0" word-spacing="0">
    <path d="M133.42 265.664q-.684 1.133-2.188 1.924t-2.89.79q-1.368 0-3.848-.8-2.46-.8-3.184-.8-1.347 0-2.314 1.034-.967 1.036-.967 2.5 0 1.427.889 2.334.888.909 2.207 1.426t4.111 1.299q2.794.762 4.492 1.494a7.5 7.5 0 0 1 2.881 2.188q1.182 1.455 1.182 3.818 0 3.535-2.9 6.29-2.901 2.753-7.178 2.753-3.907 0-6.475-2.05-2.568-2.052-2.568-4.884-.001-2.09 1.504-3.486 1.503-1.396 3.886-1.396 2.5 0 4.229 1.377 1.728 1.377 1.728 3.271 0 1.29-.888 2.12-.89.83-2.14.83-2.07 0-3.085-1.915l.488-.273q.743.762 1.64.761.959 0 1.593-.673.634-.675.634-1.69 0-1.27-1.064-2.119t-2.568-.85q-1.758 0-2.92 1.29-1.162 1.289-1.162 3.085 0 2.364 2.08 4.063 2.079 1.7 5.244 1.7 3.378 0 5.625-2.12t2.246-4.97q0-1.954-1.045-3.165a6.6 6.6 0 0 0-2.5-1.816q-1.455-.606-4.053-1.348t-4.052-1.347a6.4 6.4 0 0 1-2.442-1.758q-.986-1.152-.986-3.008 0-2.54 2.012-4.365 2.011-1.827 4.667-1.826 1.23 0 3.516.644 2.305.625 3.32.625 1.66 0 2.891-1.309z" style="line-height:125%" transform="translate(-590.536 -1366.33)scale(5.1499)"/>
    <path d="m153.505 274.929-1.875 1.875-.273-.195q0-1.114-.8-1.934-.803-.82-1.68-.82-1.075 0-2.003.83-.928.829-2.392 4.463-2.13 5.253-4.121 7.382a6.5 6.5 0 0 1 1.67 1.24q.732.752 1.474 2.667l1.7 4.16q.898 2.188 1.074 2.46.176.274.683.616t1.075.342q1.796 0 3.828-2.89l.644.487q-2.617 4.044-5.761 4.043-1.68 0-2.842-1.689t-2.08-5.596q-.9-3.906-2.305-5.117-.898.547-1.68.547l-.37-.04v1.602q0 4.18-2.442 7.188t-5.957 3.008q-3.75 0-6.035-3.477l2.324-2.148.273.234q-.078.117-.078.488 0 1.894 1.104 2.979 1.103 1.084 2.9 1.084 2.442 0 4.014-1.934t1.572-5.547q0-1.386-.469-4.433-.45-3.047-.449-4.844 0-3.32 1.406-5.84-1.6 1.212-3.047 1.211-1.797 0-3.515-1.484-1.465-1.29-3.047-1.29-1.563 0-2.676 1.25t-1.113 3.048q0 1.581.957 2.588.957 1.005 2.441 1.005 1.777 0 2.95-1.445l.332.234q-1.075 2.97-3.731 2.97-1.797 0-2.92-1.241-1.123-1.24-1.123-3.272 0-2.832 2.012-4.794 2.011-1.963 4.355-1.963 1.875 0 3.848 1.757 1.464 1.27 2.52 1.27 1.523 0 3.203-2.441l.507.37q-1.757 2.403-1.757 5.509 0 1.484.605 3.789.626 2.284.84 3.34.644-.294 1.523-.294l.664.059a9 9 0 0 0 1.416-1.777q.655-1.055 1.514-3.672.879-2.617 1.719-4.15a7.8 7.8 0 0 1 2.334-2.608q1.494-1.074 3.115-1.074 2.167 0 3.945 1.914m-14.824 11.953q-.957 0-1.21.293.252.078.41.078.43 0 .8-.371" style="line-height:125%" transform="translate(-590.536 -1366.33)scale(5.1499)"/>
  </g>
</svg>
