<?xml version="1.0" encoding="UTF-8" standalone="no"?>
<!-- Created with Inkscape (http://www.inkscape.org/) -->

<svg
   xmlns:dc="http://purl.org/dc/elements/1.1/"
   xmlns:cc="http://creativecommons.org/ns#"
   xmlns:rdf="http://www.w3.org/1999/02/22-rdf-syntax-ns#"
   xmlns:svg="http://www.w3.org/2000/svg"
   xmlns="http://www.w3.org/2000/svg"
   xmlns:sodipodi="http://sodipodi.sourceforge.net/DTD/sodipodi-0.dtd"
   xmlns:inkscape="http://www.inkscape.org/namespaces/inkscape"
   width="200"
   height="176.86287"
   id="svg2"
   version="1.1"
   inkscape:version="0.48.1 "
   sodipodi:docname="logo.svg">
  <defs
     id="defs4" />
  <sodipodi:namedview
     id="base"
     pagecolor="#ffffff"
     bordercolor="#666666"
     borderopacity="1.0"
     inkscape:pageopacity="0.0"
     inkscape:pageshadow="2"
     inkscape:zoom="2.8"
     inkscape:cx="75.668526"
     inkscape:cy="86.530719"
     inkscape:document-units="px"
     inkscape:current-layer="layer1"
     showgrid="false"
     inkscape:window-width="1396"
     inkscape:window-height="715"
     inkscape:window-x="250"
     inkscape:window-y="46"
     inkscape:window-maximized="0"
     fit-margin-top="0"
     fit-margin-left="0"
     fit-margin-right="0"
     fit-margin-bottom="0" />
  <metadata
     id="metadata7">
    <rdf:RDF>
      <cc:Work
         rdf:about="">
        <dc:format>image/svg+xml</dc:format>
        <dc:type
           rdf:resource="http://purl.org/dc/dcmitype/StillImage" />
        <dc:title></dc:title>
      </cc:Work>
    </rdf:RDF>
  </metadata>
  <g
     inkscape:label="Layer 1"
     inkscape:groupmode="layer"
     id="layer1"
     transform="translate(-123.2559,-113.82752)">
    <g
       style="font-size:40px;font-style:normal;font-variant:normal;font-weight:normal;font-stretch:normal;line-height:125%;letter-spacing:0px;word-spacing:0px;fill:#000000;fill-opacity:1;stroke:none;font-family:French Script MT;-inkscape-font-specification:French Script MT"
       id="text2985" />
    <g
       id="g3068"
       transform="matrix(5.1498928,0,0,5.1498928,-467.28025,-1252.5031)">
      <path
         id="path3007"
         style="font-size:40px;font-style:normal;font-variant:normal;font-weight:normal;font-stretch:normal;line-height:125%;letter-spacing:0px;word-spacing:0px;fill:#000000;fill-opacity:1;stroke:none;font-family:French Script MT;-inkscape-font-specification:French Script MT"
         d="m 133.4196,265.664 c -0.45575,0.75523 -1.18491,1.39651 -2.1875,1.92383 -1.00262,0.52737 -1.96616,0.79104 -2.89062,0.79102 -0.91148,2e-5 -2.19403,-0.26691 -3.84766,-0.80079 -1.64063,-0.53383 -2.70183,-0.80075 -3.18359,-0.80078 -0.89845,3e-5 -1.66993,0.34508 -2.31446,1.03516 -0.64453,0.69013 -0.9668,1.52346 -0.96679,2.5 -1e-5,0.95054 0.29622,1.72853 0.88867,2.33398 0.59244,0.60549 1.32812,1.08075 2.20703,1.42578 0.8789,0.34507 2.24934,0.77802 4.11133,1.29883 1.86196,0.50783 3.35936,1.00588 4.49219,1.49414 1.13279,0.4883 2.09308,1.21746 2.88085,2.1875 0.78774,0.97007 1.18162,2.24285 1.18165,3.81836 -3e-5,2.35678 -0.96682,4.45313 -2.9004,6.28907 -1.9336,1.83593 -4.32618,2.7539 -7.17773,2.7539 -2.60417,0 -4.76238,-0.68359 -6.47461,-2.05078 -1.71224,-1.36718 -2.56836,-2.99479 -2.56836,-4.88281 0,-1.39322 0.5013,-2.55533 1.50391,-3.48633 1.0026,-0.93098 2.29817,-1.39647 3.88672,-1.39648 1.66665,10e-6 3.07616,0.45899 4.22851,1.37695 1.15233,0.91798 1.7285,2.00847 1.72852,3.27148 -2e-5,0.85938 -0.29624,1.56576 -0.88867,2.11914 -0.59246,0.55339 -1.30535,0.83009 -2.13868,0.83008 -1.38021,1e-5 -2.40886,-0.63801 -3.08593,-1.91406 l 0.48828,-0.27344 c 0.49478,0.50782 1.04166,0.76173 1.64062,0.76172 0.63801,10e-6 1.16861,-0.2246 1.5918,-0.67383 0.42317,-0.44921 0.63475,-1.01236 0.63477,-1.68945 -2e-5,-0.84635 -0.35483,-1.55273 -1.06446,-2.11914 -0.70964,-0.5664 -1.56576,-0.8496 -2.56836,-0.84961 -1.17188,1e-5 -2.14518,0.4297 -2.91992,1.28906 -0.77474,0.85938 -1.16211,1.88803 -1.16211,3.08594 0,1.57552 0.69336,2.92969 2.08008,4.0625 1.38671,1.13281 3.13476,1.69922 5.24414,1.69922 2.25259,0 4.12759,-0.70638 5.625,-2.11914 1.49738,-1.41276 2.24608,-3.06966 2.24609,-4.97071 -1e-5,-1.30207 -0.34832,-2.35676 -1.04492,-3.16406 -0.69663,-0.80728 -1.52996,-1.41275 -2.5,-1.8164 -0.97006,-0.40364 -2.32097,-0.85286 -4.05273,-1.34766 -1.73178,-0.49478 -3.08269,-0.944 -4.05274,-1.34766 -0.97005,-0.40363 -1.78386,-0.98956 -2.4414,-1.75781 -0.65756,-0.76821 -0.98633,-1.77081 -0.98633,-3.00781 0,-1.69269 0.67057,-3.14777 2.01172,-4.36524 1.34114,-1.21742 2.89712,-1.82614 4.66797,-1.82617 0.8203,3e-5 1.99217,0.21487 3.51562,0.64453 1.53644,0.41669 2.64321,0.62503 3.32031,0.625 1.10676,3e-5 2.0703,-0.43617 2.89063,-1.30859 z"
         inkscape:connector-curvature="0" />
      <g
         id="text2989"
         style="font-size:40px;font-style:normal;font-variant:normal;font-weight:normal;font-stretch:normal;line-height:125%;letter-spacing:0px;word-spacing:0px;fill:#000000;fill-opacity:1;stroke:none;font-family:French Script MT;-inkscape-font-specification:French Script MT">
        <path
           id="path3004"
           d="m 153.50533,274.92889 -1.875,1.875 -0.27343,-0.19531 c -4e-5,-0.74216 -0.26696,-1.38669 -0.80079,-1.93359 -0.53388,-0.54685 -1.09378,-0.82029 -1.67968,-0.82031 -0.71618,2e-5 -1.3835,0.27671 -2.00196,0.83007 -0.61851,0.55341 -1.41604,2.04104 -2.39257,4.46289 -1.4193,3.50262 -2.793,5.96356 -4.1211,7.38282 0.62498,0.32553 1.18162,0.73894 1.66992,1.24023 0.48826,0.50131 0.9798,1.38998 1.47461,2.66602 l 1.69922,4.16015 c 0.59893,1.45834 0.95701,2.27865 1.07422,2.46094 0.11716,0.18229 0.34502,0.38737 0.68359,0.61523 0.33852,0.22787 0.69659,0.3418 1.07422,0.3418 1.19789,0 2.47393,-0.96354 3.82813,-2.89062 l 0.64453,0.48828 c -1.74482,2.69531 -3.6654,4.04297 -5.76172,4.04297 -1.11982,0 -2.06708,-0.56315 -2.8418,-1.68946 -0.77476,-1.1263 -1.46812,-2.99153 -2.08007,-5.5957 -0.59899,-2.60416 -1.36721,-4.30988 -2.30469,-5.11719 -0.59898,0.3646 -1.15888,0.54689 -1.67969,0.54688 l -0.37109,-0.0391 0,1.60156 c -2e-5,2.78646 -0.81382,5.18229 -2.44141,7.1875 -1.62762,2.00521 -3.61329,3.00781 -5.95703,3.00781 -2.50001,0 -4.51173,-1.15885 -6.03516,-3.47656 l 2.32422,-2.14844 0.27344,0.23438 c -0.0521,0.0781 -0.0781,0.24089 -0.0781,0.48828 0,1.26302 0.36784,2.25586 1.10352,2.97851 0.73567,0.72266 1.70246,1.08399 2.90039,1.08399 1.62759,0 2.96548,-0.64453 4.01367,-1.9336 1.04816,-1.28906 1.57225,-3.13801 1.57227,-5.54687 -2e-5,-0.92447 -0.15627,-2.40234 -0.46875,-4.4336 -0.2995,-2.03123 -0.44924,-3.64581 -0.44922,-4.84375 -2e-5,-2.21352 0.46873,-4.16013 1.40625,-5.83984 -1.06772,0.80731 -2.08335,1.21096 -3.04688,1.21094 -1.19792,2e-5 -2.3698,-0.49477 -3.51562,-1.48438 -0.97657,-0.85935 -1.9922,-1.28904 -3.04688,-1.28906 -1.04167,2e-5 -1.93359,0.41669 -2.67578,1.25 -0.74219,0.83336 -1.11328,1.84898 -1.11328,3.04688 0,1.0547 0.31901,1.91733 0.95703,2.58789 0.63802,0.67059 1.45182,1.00587 2.44141,1.00586 1.18489,10e-6 2.16796,-0.48176 2.94922,-1.44532 l 0.33203,0.23438 c -0.71616,1.97918 -1.95964,2.96876 -3.73047,2.96875 -1.19792,10e-6 -2.17123,-0.4134 -2.91992,-1.24024 -0.7487,-0.8268 -1.12305,-1.9173 -1.12305,-3.27148 0,-1.888 0.67057,-3.48631 2.01172,-4.79492 1.34114,-1.30857 2.79296,-1.96287 4.35547,-1.96289 1.24999,2e-5 2.53254,0.58596 3.84766,1.75781 0.97654,0.84638 1.81639,1.26955 2.51953,1.26953 1.01561,2e-5 2.08331,-0.81378 3.20312,-2.44141 l 0.50781,0.3711 c -1.17189,1.60158 -1.75783,3.43752 -1.75781,5.50781 -2e-5,0.9896 0.20181,2.25262 0.60547,3.78906 0.41665,1.52345 0.6966,2.63673 0.83984,3.33985 0.42967,-0.1953 0.93749,-0.29296 1.52344,-0.29297 l 0.66406,0.0586 c 0.5078,-0.48176 0.9798,-1.0742 1.41602,-1.77734 0.43618,-0.70311 0.94073,-1.92707 1.51367,-3.67188 0.58592,-1.74477 1.15883,-3.12823 1.71875,-4.15039 0.55987,-1.02211 1.33787,-1.89125 2.33399,-2.60742 0.99606,-0.71612 2.03447,-1.07419 3.11523,-1.07422 1.44528,3e-5 2.76038,0.63805 3.94531,1.91406 z m -14.82422,11.95313 c -0.63804,10e-6 -1.04168,0.0977 -1.21093,0.29297 0.16925,0.0521 0.30597,0.0781 0.41015,0.0781 0.28644,1e-5 0.55337,-0.12368 0.80078,-0.37109 z"
           inkscape:connector-curvature="0" />
      </g>
    </g>
  </g>
</svg>
