<svg xmlns="http://www.w3.org/2000/svg" width="200" height="176.863">
  <g font-family="French Script MT" font-size="40" font-weight="400" letter-spacing="0" word-spacing="0">
    <path d="M133.42 265.664c-.456.755-1.185 1.397-2.188 1.924-1.003.527-1.966.79-2.89.79-.912 0-2.195-.266-3.848-.8-1.64-.534-2.702-.8-3.184-.8-.898 0-1.67.344-2.314 1.034-.645.69-.967 1.524-.967 2.5 0 .951.296 1.729.889 2.334.592.606 1.328 1.081 2.207 1.426.879.345 2.249.778 4.111 1.299 1.862.508 3.36 1.006 4.492 1.494a7.474 7.474 0 0 1 2.881 2.188c.788.97 1.182 2.243 1.182 3.818 0 2.357-.967 4.453-2.9 6.29-1.934 1.835-4.327 2.753-7.178 2.753-2.605 0-4.763-.684-6.475-2.05-1.712-1.368-2.568-2.996-2.568-4.884 0-1.393.5-2.555 1.504-3.486 1.002-.93 2.298-1.396 3.886-1.396 1.667 0 3.076.459 4.229 1.377 1.152.918 1.728 2.008 1.728 3.271 0 .86-.296 1.566-.888 2.12-.593.553-1.306.83-2.14.83-1.38 0-2.408-.639-3.085-1.915l.488-.273c.495.508 1.042.761 1.64.761.639 0 1.17-.224 1.593-.673.423-.45.634-1.013.634-1.69 0-.846-.354-1.553-1.064-2.119-.71-.566-1.566-.85-2.568-.85-1.172 0-2.146.43-2.92 1.29-.775.859-1.162 1.888-1.162 3.085 0 1.576.693 2.93 2.08 4.063 1.386 1.133 3.134 1.7 5.244 1.7 2.252 0 4.127-.707 5.625-2.12 1.497-1.413 2.246-3.07 2.246-4.97 0-1.303-.348-2.357-1.045-3.165a6.624 6.624 0 0 0-2.5-1.816c-.97-.404-2.321-.853-4.053-1.348-1.732-.495-3.082-.944-4.052-1.347a6.394 6.394 0 0 1-2.442-1.758c-.657-.768-.986-1.771-.986-3.008 0-1.693.67-3.148 2.012-4.365 1.34-1.218 2.897-1.826 4.667-1.826.82 0 1.993.214 3.516.644 1.537.417 2.643.625 3.32.625 1.107 0 2.07-.436 2.891-1.309z" style="line-height:125%;-inkscape-font-specification:French Script MT" transform="matrix(5.1499 0 0 5.1499 -590.536 -1366.33)"/>
    <path d="m153.505 274.929-1.875 1.875-.273-.195c0-.743-.267-1.387-.8-1.934-.535-.547-1.095-.82-1.68-.82-.717 0-1.384.276-2.003.83-.618.553-1.416 2.04-2.392 4.463-1.42 3.502-2.793 5.963-4.121 7.382a6.521 6.521 0 0 1 1.67 1.24c.488.502.98 1.39 1.474 2.667l1.7 4.16c.598 1.458.957 2.279 1.074 2.46.117.183.345.388.683.616.339.228.697.342 1.075.342 1.197 0 2.474-.964 3.828-2.89l.644.487c-1.745 2.696-3.665 4.043-5.761 4.043-1.12 0-2.068-.563-2.842-1.689-.775-1.126-1.468-2.992-2.08-5.596-.6-2.604-1.368-4.31-2.305-5.117-.599.365-1.159.547-1.68.547l-.37-.04v1.602c0 2.787-.815 5.183-2.442 7.188-1.628 2.005-3.614 3.008-5.957 3.008-2.5 0-4.512-1.16-6.035-3.477l2.324-2.148.273.234c-.052.078-.078.241-.078.488 0 1.263.368 2.256 1.104 2.979.735.723 1.702 1.084 2.9 1.084 1.628 0 2.966-.645 4.014-1.934s1.572-3.138 1.572-5.547c0-.924-.156-2.402-.469-4.433-.3-2.031-.449-3.646-.449-4.844 0-2.213.469-4.16 1.406-5.84-1.067.808-2.083 1.211-3.047 1.211-1.198 0-2.37-.495-3.515-1.484-.977-.86-1.992-1.29-3.047-1.29-1.042 0-1.934.417-2.676 1.25-.742.834-1.113 1.85-1.113 3.048 0 1.054.319 1.917.957 2.588.638.67 1.452 1.005 2.441 1.005 1.185 0 2.168-.481 2.95-1.445l.332.234c-.717 1.98-1.96 2.97-3.731 2.97-1.198 0-2.171-.414-2.92-1.241-.749-.827-1.123-1.917-1.123-3.272 0-1.888.67-3.486 2.012-4.794 1.34-1.309 2.793-1.963 4.355-1.963 1.25 0 2.533.586 3.848 1.757.976.847 1.816 1.27 2.52 1.27 1.015 0 2.083-.814 3.203-2.441l.507.37c-1.172 1.602-1.757 3.438-1.757 5.509 0 .99.201 2.252.605 3.789.417 1.523.697 2.636.84 3.34.43-.196.937-.294 1.523-.294l.664.059a8.897 8.897 0 0 0 1.416-1.777c.437-.703.941-1.927 1.514-3.672.586-1.745 1.159-3.128 1.719-4.15a7.813 7.813 0 0 1 2.334-2.608c.996-.716 2.034-1.074 3.115-1.074 1.445 0 2.76.638 3.945 1.914zm-14.824 11.953c-.638 0-1.042.098-1.21.293.168.052.305.078.41.078.286 0 .553-.124.8-.371z" style="line-height:125%;-inkscape-font-specification:French Script MT" transform="matrix(5.1499 0 0 5.1499 -590.536 -1366.33)"/>
  </g>
</svg>
