<svg xmlns="http://www.w3.org/2000/svg" width="200" height="176.863"><g font-family="French Script MT" font-size="40" font-weight="400" letter-spacing="0" word-spacing="0"><path d="M96.56 1.81c-2.347 3.89-6.102 7.192-11.265 9.908-5.163 2.716-10.125 4.074-14.886 4.074-4.694 0-11.3-1.375-19.815-4.124-8.45-2.75-13.914-4.124-16.395-4.124-4.627 0-8.6 1.777-11.92 5.33C18.96 16.43 17.3 20.72 17.3 25.75c0 4.896 1.526 8.902 4.577 12.02 3.051 3.118 6.84 5.566 11.366 7.343 4.526 1.777 11.584 4.007 21.173 6.689 9.589 2.615 17.3 5.18 23.134 7.694 5.834 2.515 10.78 6.27 14.836 11.266 4.057 4.995 6.085 11.55 6.086 19.664 0 12.137-4.98 22.933-14.937 32.388-9.958 9.455-22.28 14.182-36.965 14.182-13.41 0-24.525-3.52-33.343-10.561C4.409 119.394 0 111.01 0 101.288c0-7.175 2.582-13.16 7.745-17.954 5.163-4.795 11.835-7.192 20.016-7.192 8.583 0 15.842 2.364 21.777 7.091 5.934 4.728 8.901 10.344 8.901 16.848 0 4.426-1.525 8.063-4.576 10.913-3.051 2.85-6.723 4.275-11.014 4.275-7.108 0-12.406-3.286-15.893-9.857l2.515-1.408c2.548 2.615 5.365 3.923 8.45 3.922 3.285 0 6.017-1.156 8.197-3.47 2.179-2.313 3.269-5.213 3.269-8.7 0-4.359-1.828-7.997-5.482-10.914-3.655-2.916-8.064-4.375-13.227-4.375-6.035 0-11.047 2.213-15.037 6.639-3.99 4.425-5.985 9.723-5.985 15.892 0 8.114 3.57 15.087 10.712 20.921 7.142 5.834 16.144 8.751 27.007 8.751 11.6 0 21.257-3.638 28.968-10.913 7.711-7.276 11.567-15.809 11.567-25.599 0-6.705-1.794-12.137-5.381-16.294-3.588-4.158-7.88-7.276-12.875-9.355-4.995-2.078-11.952-4.392-20.87-6.94-8.92-2.548-15.876-4.862-20.872-6.94-4.996-2.079-9.187-5.096-12.573-9.053-3.386-3.956-5.08-9.12-5.08-15.49 0-8.717 3.454-16.21 10.36-22.48C27.527 3.336 35.54.2 44.66.2c4.225 0 10.26 1.107 18.105 3.32 7.913 2.145 13.613 3.218 17.1 3.218 5.7 0 10.661-2.246 14.886-6.739z" style="line-height:125%;-inkscape-font-specification:French Script MT"/><path d="M200 49.524l-9.656 9.656-1.408-1.006c0-3.822-1.375-7.141-4.124-9.958-2.75-2.816-5.633-4.224-8.65-4.224-3.689 0-7.125 1.425-10.31 4.274-3.186 2.85-7.293 10.512-12.322 22.984-7.31 18.038-14.384 30.711-21.223 38.02a33.583 33.583 0 0 1 8.6 6.388c2.514 2.581 5.046 7.158 7.594 13.73l8.75 21.424c3.085 7.51 4.93 11.734 5.533 12.673.603.939 1.777 1.995 3.52 3.169 1.744 1.173 3.588 1.76 5.532 1.76 6.17 0 12.74-4.962 19.715-14.887l3.32 2.515c-8.987 13.88-18.877 20.82-29.673 20.82-5.767 0-10.645-2.9-14.635-8.7-3.99-5.8-7.56-15.406-10.712-28.817-3.085-13.411-7.041-22.195-11.87-26.353-3.084 1.878-5.967 2.817-8.65 2.816l-1.91-.2v8.247c0 14.35-4.192 26.688-12.573 37.015-8.383 10.326-18.609 15.49-30.679 15.49-12.874 0-23.234-5.968-31.08-17.904l11.97-11.064 1.408 1.207c-.269.402-.402 1.24-.402 2.514 0 6.505 1.894 11.618 5.683 15.34 3.788 3.72 8.767 5.582 14.936 5.582 8.382 0 15.272-3.32 20.67-9.958 5.398-6.639 8.097-16.16 8.097-28.566 0-4.76-.805-12.372-2.414-22.833-1.542-10.46-2.313-18.775-2.313-24.944 0-11.4 2.414-21.425 7.242-30.075-5.499 4.158-10.73 6.236-15.691 6.236-6.17 0-12.205-2.548-18.105-7.644-5.03-4.426-10.26-6.638-15.691-6.639-5.365 0-9.958 2.146-13.78 6.438-3.823 4.291-5.734 9.522-5.734 15.69 0 5.432 1.643 9.875 4.929 13.328 3.286 3.454 7.477 5.18 12.573 5.18 6.102 0 11.165-2.48 15.188-7.443l1.71 1.207c-3.688 10.193-10.092 15.289-19.212 15.289-6.169 0-11.181-2.13-15.037-6.387-3.856-4.258-5.783-9.874-5.783-16.848 0-9.723 3.453-17.954 10.36-24.693 6.906-6.74 14.383-10.109 22.43-10.109 6.437 0 13.042 3.018 19.815 9.053 5.029 4.358 9.354 6.538 12.975 6.537 5.23 0 10.73-4.19 16.496-12.573l2.615 1.912c-6.035 8.248-9.052 17.702-9.052 28.364 0 5.097 1.039 11.601 3.118 19.513 2.145 7.846 3.587 13.58 4.325 17.2 2.213-1.005 4.828-1.508 7.845-1.508l3.42.301c2.615-2.48 5.046-5.532 7.293-9.153 2.246-3.62 4.844-9.924 7.795-18.91 3.017-8.985 5.968-16.11 8.851-21.374 2.883-5.263 6.89-9.74 12.02-13.428 5.13-3.687 10.477-5.532 16.043-5.532 7.443 0 14.216 3.286 20.318 9.858zm-76.343 61.557c-3.286 0-5.365.503-6.236 1.509.871.268 1.575.402 2.112.402 1.475 0 2.85-.637 4.124-1.911z" style="line-height:125%;-inkscape-font-specification:French Script MT"/></g></svg>